<?xml version="1.0" standalone="no"?>
<!DOCTYPE svg PUBLIC "-//W3C//DTD SVG 20010904//EN"
 "http://www.w3.org/TR/2001/REC-SVG-20010904/DTD/svg10.dtd">
<svg version="1.0" xmlns="http://www.w3.org/2000/svg"
 width="1143.000000pt" height="1280.000000pt" viewBox="0 0 1143.000000 1280.000000"
 preserveAspectRatio="xMidYMid meet">
<g transform="translate(0.000000,1280.000000) scale(0.100000,-0.100000)"
fill="#03a9f4" stroke="none">
<path d="M5988 12738 c-105 -163 -218 -388 -264 -523 -39 -114 -44 -247 -14
-347 23 -76 72 -176 120 -242 l29 -38 5 33 c3 19 8 70 11 114 10 131 106 709
120 723 16 16 -4 -676 -24 -813 -5 -33 -6 -62 -4 -65 8 -8 118 116 160 179
115 173 123 354 28 677 -37 126 -112 335 -125 348 -4 4 -24 -16 -42 -46z"/>
<path d="M6622 12337 c-135 -205 -234 -398 -281 -552 -31 -99 -29 -223 5 -323
25 -75 92 -198 140 -257 l24 -30 0 47 c0 103 47 398 113 718 l32 155 3 -145
c4 -167 -13 -563 -29 -681 -6 -44 -8 -83 -5 -87 4 -3 42 30 85 74 230 238 249
429 91 904 -32 96 -69 200 -82 230 l-25 55 -71 -108z"/>
<path d="M7530 12129 c-54 -93 -196 -389 -239 -501 -72 -186 -95 -288 -96
-413 0 -88 5 -125 23 -185 30 -94 80 -194 146 -289 l51 -75 7 141 c8 165 35
410 80 728 31 220 33 227 40 170 12 -90 12 -889 1 -974 l-10 -75 49 53 c106
115 191 260 224 381 37 136 16 341 -62 597 -40 132 -109 325 -152 427 l-30 69
-32 -54z"/>
<path d="M4376 12031 c-129 -400 -100 -537 137 -652 105 -51 110 -50 91 3 -35
101 -123 542 -110 555 10 11 166 -363 206 -496 l23 -73 23 28 c38 48 93 165
105 225 16 79 -5 144 -74 234 -56 74 -199 205 -297 274 l-59 42 -45 -140z"/>
<path d="M3579 12028 c-8 -78 -14 -240 -14 -393 1 -299 16 -403 80 -531 61
-124 194 -248 369 -343 32 -17 60 -30 62 -28 3 2 -10 37 -27 78 -70 165 -160
441 -263 812 -24 86 -41 157 -39 157 7 0 264 -530 326 -670 30 -69 69 -165 86
-215 18 -49 35 -97 38 -105 8 -22 40 55 70 169 36 135 38 305 5 406 -46 135
-159 297 -348 495 -113 117 -309 300 -323 300 -5 0 -15 -60 -22 -132z"/>
<path d="M5221 11880 c-118 -238 -231 -514 -280 -678 -108 -364 -79 -607 104
-889 48 -73 180 -243 189 -243 2 0 -1 26 -6 58 -21 127 26 836 91 1362 11 90
17 57 35 -190 36 -476 40 -561 40 -884 l1 -338 53 58 c140 157 255 360 293
519 30 128 23 311 -20 480 -50 200 -135 436 -245 683 -58 129 -135 282 -142
282 -3 0 -54 -99 -113 -220z"/>
<path d="M3066 11693 c-11 -36 -36 -225 -42 -320 -12 -174 16 -271 104 -366
41 -43 141 -121 148 -114 2 1 -10 45 -26 97 -31 108 -113 480 -106 487 6 7
139 -337 176 -456 35 -112 36 -112 70 -24 77 204 31 335 -217 615 -47 54 -90
98 -94 98 -4 0 -10 -8 -13 -17z"/>
<path d="M8545 11638 c-13 -38 -56 -335 -71 -488 -43 -455 16 -656 266 -893
50 -48 95 -87 99 -87 5 0 0 33 -11 73 -34 129 -77 339 -117 583 -56 339 -64
394 -59 399 13 13 241 -741 282 -930 l24 -110 25 55 c71 158 106 344 88 476
-15 103 -32 156 -96 289 -60 124 -159 286 -273 443 -116 163 -151 205 -157
190z"/>
<path d="M2798 11549 c-132 -162 -316 -450 -398 -621 -70 -147 -85 -209 -85
-353 1 -133 21 -228 77 -364 37 -88 32 -95 82 114 49 205 253 871 264 861 13
-13 -116 -738 -169 -950 -16 -65 -28 -121 -25 -123 3 -3 57 46 119 108 127
127 183 211 225 336 23 70 26 98 30 268 4 201 -9 358 -50 605 -29 175 -27 172
-70 119z"/>
<path d="M8137 11510 c-112 -105 -202 -224 -222 -295 -20 -68 -9 -137 36 -233
36 -75 31 -79 74 55 33 105 138 360 142 347 5 -16 -53 -298 -81 -394 -13 -47
-23 -87 -21 -89 8 -7 99 52 143 93 79 72 101 153 82 301 -11 90 -46 259 -59
283 -5 9 -34 -12 -94 -68z"/>
<path d="M1782 11480 c-26 -133 -35 -224 -35 -350 0 -155 10 -193 73 -276 37
-49 165 -152 176 -142 2 3 -3 25 -11 49 -32 90 -131 526 -122 536 9 8 172
-426 198 -527 l12 -45 24 52 c38 84 56 187 44 257 -18 104 -112 249 -270 417
l-78 84 -11 -55z"/>
<path d="M9556 11449 c-157 -170 -249 -312 -267 -415 -12 -70 6 -173 44 -257
l24 -52 12 45 c26 101 189 535 198 527 9 -10 -90 -446 -122 -536 -8 -24 -13
-46 -11 -49 11 -10 139 93 176 142 63 83 73 121 73 276 0 123 -22 329 -42 382
-6 18 -17 10 -85 -63z"/>
<path d="M6140 11345 c-43 -96 -105 -286 -120 -368 -25 -136 10 -249 112 -361
l53 -58 -2 308 c-1 173 1 300 6 289 12 -28 50 -299 65 -457 l12 -133 33 45
c18 25 47 74 65 110 60 127 38 267 -78 493 -29 56 -67 124 -84 152 l-31 50
-31 -70z"/>
<path d="M6805 11067 c-168 -366 -263 -738 -236 -920 23 -148 131 -312 293
-441 45 -36 85 -66 89 -66 3 0 0 30 -7 68 -20 109 -34 274 -44 539 -10 260
-13 509 -6 502 19 -18 167 -729 187 -894 6 -55 14 -122 18 -150 l7 -50 49 63
c28 34 72 100 98 145 107 183 127 341 68 517 -40 119 -118 267 -228 435 -80
121 -226 319 -243 330 -4 2 -24 -32 -45 -78z"/>
<path d="M4470 10893 c-129 -226 -241 -476 -296 -658 -23 -77 -27 -109 -28
-215 0 -90 5 -143 17 -190 18 -65 111 -267 140 -305 15 -19 15 -18 21 15 3 19
8 69 11 110 12 147 132 875 150 915 8 16 -4 -538 -15 -695 -11 -151 -26 -304
-36 -355 l-6 -30 32 30 c92 87 195 246 237 369 26 75 28 92 28 236 -1 174 -17
279 -84 535 -41 156 -99 345 -106 345 -2 0 -32 -48 -65 -107z"/>
<path d="M1308 10778 c-208 -208 -298 -348 -298 -462 1 -99 51 -201 159 -317
l48 -53 12 82 c7 46 25 134 41 195 32 125 119 409 127 417 3 3 3 -85 -1 -195
-6 -199 -27 -420 -45 -482 -5 -18 -7 -33 -4 -33 17 0 146 77 191 114 151 123
170 229 86 476 -38 112 -163 371 -182 378 -6 2 -67 -52 -134 -120z"/>
<path d="M9942 10827 c-137 -254 -206 -481 -181 -596 20 -93 116 -195 250
-266 37 -19 69 -35 72 -35 3 0 1 15 -4 33 -18 62 -39 284 -46 482 -3 110 -3
198 0 195 8 -8 95 -292 127 -417 16 -61 34 -149 41 -195 l12 -82 48 53 c108
116 158 218 159 317 0 73 -38 157 -122 269 -56 74 -290 315 -307 315 -5 0 -27
-33 -49 -73z"/>
<path d="M3382 10723 c-156 -232 -289 -485 -343 -653 -72 -219 -39 -403 107
-601 45 -61 130 -159 138 -159 1 0 6 64 9 143 3 78 16 216 27 307 24 185 98
641 105 649 3 2 5 -11 5 -30 0 -19 5 -104 10 -189 12 -188 13 -741 2 -827 -5
-35 -5 -63 -1 -63 5 0 50 42 102 93 207 203 275 383 232 612 -20 106 -70 267
-126 403 -54 130 -189 402 -200 402 -5 0 -35 -39 -67 -87z"/>
<path d="M7897 10658 c-130 -264 -209 -476 -242 -653 -43 -229 22 -403 227
-607 54 -54 103 -98 109 -98 5 0 8 4 4 10 -13 21 -22 386 -14 628 8 264 19
475 25 469 6 -6 82 -481 104 -647 11 -91 24 -229 27 -307 3 -79 8 -143 9 -143
8 0 93 98 137 158 189 259 192 462 14 827 -91 186 -294 515 -317 515 -4 0 -42
-69 -83 -152z"/>
<path d="M1900 10428 c0 -7 -9 -74 -20 -148 -62 -430 -70 -844 -21 -1086 22
-108 70 -217 135 -308 61 -85 215 -230 316 -297 88 -58 150 -93 150 -85 0 3
-14 40 -31 83 -17 43 -53 152 -81 243 -78 258 -277 1074 -265 1086 2 2 13 -17
24 -43 12 -27 64 -149 118 -273 53 -124 133 -315 177 -425 80 -199 208 -568
208 -599 0 -86 103 182 137 353 22 115 21 294 -2 386 -60 242 -303 590 -684
978 -79 81 -148 147 -153 147 -4 0 -8 -6 -8 -12z"/>
<path d="M9369 10293 c-381 -388 -624 -735 -685 -978 -34 -138 -19 -365 37
-536 52 -160 99 -257 99 -204 0 8 25 91 55 185 64 194 188 511 330 840 54 124
106 246 118 273 11 26 22 45 24 43 12 -12 -187 -828 -265 -1086 -28 -91 -64
-200 -81 -243 -17 -43 -31 -80 -31 -83 0 -8 62 27 150 85 101 67 256 212 315
296 52 74 98 163 119 233 65 220 63 704 -4 1163 -11 74 -20 140 -20 147 0 6
-4 12 -8 12 -5 0 -74 -66 -153 -147z"/>
<path d="M5977 10363 c-197 -245 -384 -550 -449 -733 -19 -56 -22 -85 -23
-210 0 -110 4 -162 19 -215 20 -75 76 -219 82 -212 3 2 20 64 38 138 19 74 55
202 81 284 53 173 207 627 211 623 4 -5 -64 -392 -107 -607 -39 -197 -88 -400
-109 -456 l-10 -26 32 23 c71 50 192 176 244 253 63 96 97 181 114 288 16 98
7 477 -14 631 -20 139 -44 278 -50 283 -2 2 -29 -26 -59 -64z"/>
<path d="M4836 9679 c-159 -329 -274 -631 -327 -864 -34 -149 -32 -328 5 -449
28 -93 83 -211 139 -298 43 -67 146 -195 183 -228 16 -14 23 -18 17 -10 -18
20 -17 386 2 680 15 231 64 792 69 798 5 4 14 -76 35 -313 36 -391 52 -670 52
-918 l1 -242 54 59 c121 132 230 322 274 476 70 245 12 543 -202 1045 -61 143
-192 413 -208 429 -6 6 -43 -59 -94 -165z"/>
<path d="M6470 9793 c-154 -283 -333 -744 -387 -994 -27 -127 -25 -320 5 -424
46 -160 154 -348 276 -481 l54 -59 1 242 c0 248 16 527 52 918 21 237 30 317
35 313 5 -6 54 -567 69 -798 19 -294 20 -660 3 -680 -7 -8 0 -4 16 10 37 33
140 161 183 228 56 87 111 205 139 298 34 114 39 291 10 424 -41 190 -128 441
-242 697 -68 152 -171 363 -178 363 -3 0 -19 -26 -36 -57z"/>
<path d="M638 9743 c-147 -177 -231 -304 -274 -419 -48 -127 -21 -250 88 -406
49 -69 44 -74 67 72 13 86 42 204 96 405 39 143 60 193 51 120 -3 -22 -8 -98
-11 -170 -7 -162 -22 -316 -41 -419 -8 -43 -14 -80 -14 -83 0 -2 27 15 61 38
80 56 151 135 186 206 24 51 27 68 26 148 -2 113 -41 271 -113 453 -28 73 -53
132 -54 132 -2 0 -32 -35 -68 -77z"/>
<path d="M10670 9690 c-72 -184 -111 -341 -113 -455 -1 -80 2 -97 26 -148 35
-71 106 -150 186 -206 34 -23 61 -40 61 -38 0 3 -6 40 -14 83 -19 103 -34 257
-41 419 -3 72 -8 148 -11 170 -9 73 12 23 51 -120 54 -201 83 -319 96 -405 23
-146 18 -141 67 -72 137 195 145 330 30 527 -41 71 -175 253 -246 334 l-39 44
-53 -133z"/>
<path d="M1247 9658 c-27 -107 -41 -293 -42 -518 0 -231 2 -249 23 -310 34
-92 82 -167 156 -242 66 -66 186 -156 186 -140 0 4 -12 42 -26 83 -30 88 -99
368 -149 604 -19 94 -38 181 -41 195 -11 50 7 10 90 -202 94 -238 187 -503
206 -591 7 -31 17 -57 21 -57 10 0 46 98 70 189 23 90 25 224 4 304 -34 130
-159 331 -338 542 -67 79 -146 165 -151 165 -2 0 -6 -10 -9 -22z"/>
<path d="M10068 9567 c-216 -250 -346 -452 -383 -594 -21 -80 -19 -214 4 -304
24 -91 60 -189 70 -189 4 0 14 26 21 57 19 88 111 351 207 593 47 121 87 219
89 217 10 -9 -126 -604 -173 -757 -20 -63 -38 -124 -41 -134 -8 -28 100 49
178 127 77 78 126 152 159 241 25 69 26 77 26 316 -1 179 -5 278 -18 370 -20
141 -26 170 -36 170 -3 0 -50 -51 -103 -113z"/>
<path d="M3921 9393 c-58 -214 -81 -354 -81 -490 0 -161 38 -242 155 -330 59
-44 154 -98 161 -91 2 2 -6 33 -17 68 -41 131 -137 595 -126 606 11 11 197
-460 233 -589 8 -31 19 -55 23 -52 16 9 80 151 96 210 30 119 13 200 -68 323
-51 76 -209 247 -307 332 l-59 51 -10 -38z"/>
<path d="M7338 9279 c-260 -260 -318 -378 -273 -554 16 -59 80 -201 96 -210 4
-3 15 21 23 52 36 128 222 600 233 589 11 -11 -85 -476 -126 -606 -11 -35 -19
-66 -17 -68 7 -7 102 47 161 91 70 52 116 112 139 180 21 62 21 220 1 347 -17
100 -62 295 -75 319 -6 11 -48 -26 -162 -140z"/>
<path d="M3316 9113 c-3 -16 -12 -71 -20 -123 -35 -229 -29 -366 20 -467 26
-53 123 -152 184 -187 33 -19 33 -19 28 0 -3 10 -17 58 -32 107 -14 48 -41
163 -61 255 -19 92 -38 178 -41 192 -21 95 108 -224 172 -424 43 -135 48 -136
87 -11 33 108 29 202 -12 288 -18 38 -62 107 -97 153 -69 92 -203 244 -215
244 -4 0 -10 -12 -13 -27z"/>
<path d="M8022 9062 c-103 -115 -196 -241 -233 -319 -28 -58 -33 -79 -33 -143
0 -76 29 -196 57 -234 12 -16 17 -6 51 100 66 207 194 521 172 424 -3 -14 -22
-100 -41 -192 -20 -92 -47 -207 -61 -255 -15 -49 -29 -97 -32 -107 -5 -19 -5
-19 28 0 61 35 158 134 185 187 50 104 53 281 9 531 -8 45 -14 82 -14 84 0 14
-29 -11 -88 -76z"/>
<path d="M2866 8770 c-25 -105 -54 -339 -66 -530 -17 -273 12 -469 87 -600 58
-99 187 -241 279 -307 l30 -22 -32 113 c-48 168 -203 960 -190 974 2 1 53
-147 114 -330 109 -325 168 -522 193 -643 7 -33 15 -64 20 -68 8 -10 58 115
85 213 14 49 18 101 19 210 0 166 -9 200 -96 373 -85 169 -271 448 -395 594
-41 47 -42 47 -48 23z"/>
<path d="M8497 8724 c-197 -245 -383 -550 -449 -734 -20 -56 -23 -84 -23 -210
1 -109 5 -161 19 -210 27 -98 77 -223 85 -213 5 4 13 35 20 68 25 121 84 318
193 643 61 183 112 331 114 330 13 -14 -142 -806 -190 -974 l-32 -113 30 22
c17 12 61 51 99 87 229 216 292 410 266 825 -10 161 -55 508 -69 534 -5 10
-23 -6 -63 -55z"/>
<path d="M58 8538 c16 -29 46 -84 67 -123 108 -201 296 -492 409 -635 213
-270 379 -378 650 -425 122 -21 446 -18 446 5 0 3 -35 29 -77 56 -158 99 -459
334 -809 630 -182 154 -277 239 -259 231 27 -12 506 -290 643 -374 201 -122
415 -264 517 -341 56 -42 81 -56 83 -46 5 21 -43 185 -84 284 -82 201 -229
380 -384 467 -209 117 -576 223 -1035 298 -82 14 -160 25 -173 25 l-23 0 29
-52z"/>
<path d="M11170 8560 c-459 -80 -795 -178 -1000 -293 -155 -87 -302 -266 -384
-467 -41 -99 -89 -263 -84 -284 2 -10 27 4 83 46 100 76 345 238 533 352 130
78 603 353 627 363 18 8 -77 -77 -259 -231 -350 -296 -651 -531 -808 -630 -43
-27 -78 -53 -78 -56 0 -23 324 -26 446 -5 271 47 437 155 650 425 113 143 301
434 409 635 21 39 51 94 67 123 l29 52 -33 -1 c-18 0 -107 -13 -198 -29z"/>
<path d="M2037 8533 c-10 -16 -66 -261 -77 -338 -7 -44 -12 -125 -12 -180 0
-134 24 -198 101 -276 50 -49 209 -155 219 -145 2 2 -8 41 -22 85 -40 125
-127 538 -125 590 1 36 183 -412 222 -549 14 -47 29 -84 33 -84 17 3 83 148
99 218 21 92 13 157 -30 244 -43 86 -168 235 -291 349 -101 93 -109 99 -117
86z"/>
<path d="M9238 8408 c-148 -146 -216 -232 -259 -323 -39 -82 -45 -137 -25
-227 16 -72 84 -223 100 -223 5 0 19 36 31 80 40 138 216 577 223 556 9 -26
-81 -457 -123 -590 -15 -46 -25 -85 -23 -87 2 -2 40 17 84 43 108 63 184 141
213 218 42 108 28 318 -36 569 -15 60 -33 111 -39 113 -6 2 -72 -56 -146 -129z"/>
<path d="M5535 8369 c-2 -8 -13 -50 -24 -95 -78 -311 -87 -504 -29 -617 31
-62 124 -147 207 -191 40 -21 74 -36 77 -34 2 3 -5 31 -16 64 -36 104 -131
547 -129 602 1 37 182 -409 221 -545 14 -46 27 -85 30 -88 3 -3 21 25 40 62
123 237 97 370 -123 615 -98 108 -248 243 -254 227z"/>
<path d="M3877 8258 c-156 -412 -222 -783 -171 -959 44 -152 188 -317 387
-444 l28 -18 -10 24 c-36 89 -81 437 -112 864 -16 233 -11 245 35 85 122 -422
196 -725 212 -867 3 -35 10 -63 14 -63 4 0 31 35 59 78 140 208 188 398 145
566 -33 128 -134 310 -286 513 -86 117 -248 312 -259 312 -4 1 -22 -41 -42
-91z"/>
<path d="M7420 8249 c-242 -284 -410 -553 -455 -729 -36 -137 -2 -312 92 -475
49 -85 104 -164 114 -165 4 0 10 28 13 63 16 143 70 366 184 767 75 263 80
265 63 15 -31 -427 -76 -775 -112 -864 l-10 -24 28 18 c199 127 343 292 387
444 33 112 18 316 -40 546 -44 174 -158 506 -173 504 -3 0 -44 -45 -91 -100z"/>
<path d="M5095 7588 c-90 -79 -237 -492 -360 -1016 -21 -86 -32 -116 -48 -127
-41 -26 -254 -113 -354 -144 -165 -52 -286 -71 -447 -71 -337 0 -671 60 -814
147 -80 49 -377 260 -712 507 -295 218 -305 222 -361 167 -31 -31 -36 -62 -16
-98 16 -28 1221 -976 1307 -1028 120 -72 328 -214 467 -319 429 -323 694 -620
779 -871 24 -73 27 -92 25 -225 -3 -319 -81 -1363 -267 -3559 -36 -425 -64
-774 -62 -776 2 -1 82 -19 178 -39 280 -58 608 -106 840 -121 47 -3 97 -8 113
-10 l27 -5 -2 2883 -3 2883 -27 40 c-16 21 -50 66 -78 99 -27 33 -68 95 -90
139 -37 72 -40 85 -40 156 0 43 16 242 35 442 19 200 39 426 45 503 12 162 13
405 2 421 -10 14 -77 54 -90 54 -6 0 -28 -14 -47 -32z"/>
<path d="M6360 7598 c-19 -12 -38 -27 -42 -33 -13 -17 -9 -270 7 -475 9 -107
29 -332 45 -500 17 -168 30 -342 30 -386 0 -75 -3 -88 -40 -160 -22 -44 -63
-106 -90 -139 -28 -33 -62 -78 -78 -99 l-27 -40 -3 -2884 -2 -2884 87 7 c184
13 475 47 648 75 185 30 414 75 423 84 2 3 -5 119 -17 258 -189 2181 -310
3768 -312 4088 -1 133 2 153 26 225 99 297 456 662 1025 1047 85 58 184 122
220 143 84 51 1291 1000 1307 1028 20 36 15 67 -16 98 -57 56 -62 54 -416
-207 -433 -318 -638 -461 -710 -495 -136 -64 -391 -107 -681 -116 -229 -7
-314 4 -511 63 -108 33 -325 120 -370 149 -16 11 -27 40 -47 127 -115 491
-259 905 -351 1006 -43 48 -56 50 -105 20z"/>
<path d="M2638 7470 c-25 -26 -30 -37 -25 -64 3 -18 108 -233 234 -478 l228
-447 50 -30 c49 -29 178 -72 263 -86 l43 -7 -92 124 c-250 335 -439 664 -489
853 -12 44 -25 91 -28 105 -9 31 -64 60 -115 60 -30 0 -46 -7 -69 -30z"/>
<path d="M8770 7482 c-20 -10 -38 -27 -42 -42 -3 -14 -16 -61 -28 -105 -50
-189 -239 -518 -489 -853 l-92 -124 43 7 c85 14 214 57 263 86 l50 30 228 446
c126 245 231 461 234 479 5 27 0 38 -25 64 -36 36 -87 40 -142 12z"/>
<path d="M2152 7438 c-16 -16 -15 -64 3 -124 12 -42 43 -82 177 -234 158 -179
168 -188 353 -322 105 -76 198 -143 207 -149 23 -12 22 -12 -60 143 -57 109
-99 167 -281 393 -157 195 -225 272 -252 286 -43 21 -128 26 -147 7z"/>
<path d="M9251 7432 c-23 -12 -104 -105 -258 -297 -203 -252 -231 -293 -289
-408 -43 -85 -59 -125 -47 -118 10 5 104 72 208 148 184 135 195 145 353 323
134 152 165 192 177 234 18 60 19 108 3 124 -17 17 -107 14 -147 -6z"/>
<path d="M420 7225 c-90 -32 -169 -74 -313 -168 l-108 -70 31 -13 c47 -20 215
-71 300 -91 43 -9 116 -17 170 -18 87 0 101 3 160 32 40 20 89 56 127 94 35
35 61 64 60 66 -2 1 -52 -4 -113 -12 -60 -7 -174 -16 -254 -20 -80 -3 -167 -8
-195 -10 -36 -3 -44 -2 -30 5 33 16 342 81 470 99 l120 17 -45 29 c-131 84
-255 103 -380 60z"/>
<path d="M10770 7231 c-59 -19 -83 -30 -145 -69 l-40 -26 120 -17 c128 -18
437 -83 470 -99 14 -7 6 -8 -30 -5 -27 2 -115 7 -195 10 -80 4 -194 13 -254
20 -61 8 -111 13 -113 11 -11 -11 129 -131 186 -159 60 -29 73 -32 161 -32 54
1 127 9 170 18 85 20 253 71 300 91 l31 13 -108 70 c-146 96 -224 137 -315
167 -90 30 -160 32 -238 7z"/>
<path d="M3590 7115 l-24 -25 61 -376 c34 -206 64 -378 68 -382 8 -9 215 -16
215 -8 0 4 -45 181 -101 394 -77 296 -105 391 -121 405 -29 25 -70 21 -98 -8z"/>
<path d="M7862 7123 c-16 -14 -44 -109 -121 -405 -56 -213 -101 -390 -101
-394 0 -11 210 0 218 13 4 6 34 178 66 382 l60 371 -24 25 c-28 29 -69 33 -98
8z"/>
<path d="M844 6789 c15 -19 83 -94 150 -168 270 -298 510 -478 696 -522 73
-18 285 -18 383 0 43 8 79 17 82 20 2 4 -35 24 -83 45 -156 68 -878 463 -868
474 2 1 75 -24 162 -57 323 -120 657 -260 782 -326 34 -18 62 -30 62 -26 0 3
-18 39 -40 78 -93 171 -209 292 -350 363 -158 81 -447 132 -830 146 l-175 7
29 -34z"/>
<path d="M10350 6813 c-354 -24 -598 -71 -740 -143 -142 -72 -256 -190 -350
-363 -22 -39 -40 -75 -40 -78 0 -4 28 8 63 26 124 66 458 206 781 326 87 33
160 58 162 57 4 -5 -411 -240 -596 -339 -85 -46 -204 -104 -263 -130 -73 -32
-103 -49 -90 -52 116 -34 361 -43 463 -18 187 45 426 225 696 522 67 74 134
149 149 167 l27 32 -109 -2 c-59 -1 -128 -3 -153 -5z"/>
<path d="M1920 5919 c-108 -21 -200 -79 -328 -208 -134 -133 -344 -402 -328
-418 4 -4 108 -9 232 -11 470 -9 633 44 768 247 41 62 106 196 106 219 0 5
-39 -10 -87 -34 -137 -69 -698 -283 -710 -271 -4 5 208 135 382 233 133 75
333 174 353 174 6 0 12 4 12 8 0 11 -126 48 -210 61 -75 12 -127 12 -190 0z"/>
<path d="M9295 5916 c-88 -17 -185 -47 -185 -58 0 -4 6 -8 13 -8 19 0 219 -99
352 -174 174 -98 386 -228 382 -233 -12 -12 -576 203 -709 270 -49 25 -88 40
-88 35 0 -23 65 -157 106 -219 135 -203 298 -256 768 -247 124 2 228 7 232 11
16 16 -189 278 -325 415 -103 104 -189 166 -268 194 -71 25 -190 31 -278 14z"/>
<path d="M2820 5693 c-63 -11 -176 -46 -222 -69 -148 -75 -267 -261 -378 -593
-34 -102 -95 -328 -115 -430 l-7 -33 33 7 c248 50 561 151 724 231 194 95 284
190 338 351 31 94 53 284 43 367 l-7 56 -102 -103 c-116 -117 -306 -282 -547
-473 -174 -137 -203 -158 -184 -133 154 208 462 570 606 712 l118 117 -137 -1
c-76 -1 -149 -4 -163 -6z"/>
<path d="M8427 5584 c144 -143 452 -505 607 -713 19 -26 -11 -4 -189 138 -255
202 -408 334 -532 458 l-112 112 -7 -56 c-10 -83 12 -272 43 -366 54 -161 144
-256 338 -351 163 -80 476 -181 724 -231 l33 -7 -7 33 c-20 100 -79 319 -114
426 -111 334 -230 521 -379 597 -101 51 -184 68 -361 73 l-164 5 120 -118z"/>
<path d="M3515 5161 c-87 -22 -179 -99 -281 -237 -61 -82 -184 -283 -184 -300
0 -26 279 -58 458 -52 115 3 145 8 187 26 61 28 117 81 155 147 28 50 84 214
76 222 -2 2 -36 -12 -75 -31 -39 -20 -105 -50 -147 -66 -99 -40 -406 -141
-411 -136 -11 10 342 225 480 291 l107 52 -72 33 c-113 50 -220 69 -293 51z"/>
<path d="M7755 5156 c-33 -8 -93 -28 -133 -46 l-72 -33 107 -52 c138 -66 491
-281 480 -291 -5 -5 -312 96 -411 136 -42 16 -108 46 -147 66 -39 19 -73 33
-75 31 -7 -6 45 -166 68 -211 31 -61 103 -131 161 -157 44 -19 74 -23 189 -27
179 -6 458 26 458 52 0 17 -123 218 -184 300 -154 208 -273 270 -441 232z"/>
</g>
</svg>
